HIERARCHY
ROOT root
{
	OFFSET 0.000000 0.000000 0.000000
	CHANNELS 6 Xposition Yposition Zposition Zrotation Yrotation Xrotation
	JOINT lhip
	{
		OFFSET 0.058581 -0.082280 -0.017664
		CHANNELS 3 Zrotation Yrotation Xrotation
		JOINT lknee
		{
			OFFSET 0.043451 -0.386469 0.008037
			CHANNELS 3 Zrotation Yrotation Xrotation
			JOINT lankle
			{
				OFFSET -0.014790 -0.426874 -0.037428
				CHANNELS 3 Zrotation Yrotation Xrotation
				JOINT ltoe
				{
					OFFSET 0.041054 -0.060286 0.122042
					CHANNELS 3 Zrotation Yrotation Xrotation
					End Site
					{
						OFFSET 0.000000 0.000000 0.000000
					}
				}
			}
		}
	}
	JOINT rhip
	{
		OFFSET -0.060310 -0.090513 -0.013543
		CHANNELS 3 Zrotation Yrotation Xrotation
		JOINT rknee
		{
			OFFSET -0.043257 -0.383688 -0.004843
			CHANNELS 3 Zrotation Yrotation Xrotation
			JOINT rankle
			{
				OFFSET 0.019056 -0.420046 -0.034562
				CHANNELS 3 Zrotation Yrotation Xrotation
				JOINT rtoe
				{
					OFFSET -0.034840 -0.062106 0.130323
					CHANNELS 3 Zrotation Yrotation Xrotation
					End Site
					{
						OFFSET 0.000000 0.000000 0.000000
					}
				}
			}
		}
	}
	JOINT lowerback
	{
		OFFSET 0.004439 0.124404 -0.038385
		CHANNELS 3 Zrotation Yrotation Xrotation
		JOINT upperback
		{
			OFFSET 0.004488 0.137956 0.026820
			CHANNELS 3 Zrotation Yrotation Xrotation
			JOINT chest
			{
				OFFSET -0.002265 0.056032 0.002855
				CHANNELS 3 Zrotation Yrotation Xrotation
				JOINT lowerneck
				{
					OFFSET -0.013390 0.211636 -0.033468
					CHANNELS 3 Zrotation Yrotation Xrotation
					JOINT upperneck
					{
						OFFSET 0.010113 0.088937 0.050410
						CHANNELS 3 Zrotation Yrotation Xrotation
						End Site
						{
							OFFSET 0.000000 0.000000 0.000000
						}
					}
				}
				JOINT lclavicle
				{
					OFFSET 0.071702 0.114000 -0.018898
					CHANNELS 3 Zrotation Yrotation Xrotation
					JOINT lshoulder
					{
						OFFSET 0.122921 0.045205 -0.019046
						CHANNELS 3 Zrotation Yrotation Xrotation
						JOINT lelbow
						{
							OFFSET 0.255332 -0.015649 -0.022946
							CHANNELS 3 Zrotation Yrotation Xrotation
							JOINT lwrist
							{
								OFFSET 0.265709 0.012698 -0.007375
								CHANNELS 3 Zrotation Yrotation Xrotation
								End Site
								{
									OFFSET 0.000000 0.000000 0.000000
								}
							}
						}
					}
				}
				JOINT rclavicle
				{
					OFFSET -0.082954 0.112472 -0.023707
					CHANNELS 3 Zrotation Yrotation Xrotation
					JOINT rshoulder
					{
						OFFSET -0.113228 0.046853 -0.008472
						CHANNELS 3 Zrotation Yrotation Xrotation
						JOINT relbow
						{
							OFFSET -0.260127 -0.014369 -0.031269
							CHANNELS 3 Zrotation Yrotation Xrotation
							JOINT rwrist
							{
								OFFSET -0.269108 0.006794 -0.006027
								CHANNELS 3 Zrotation Yrotation Xrotation
								End Site
								{
									OFFSET 0.000000 0.000000 0.000000
								}
							}
						}
					}
				}
			}
		}
	}
}
MOTION
Frames: 5
Frame Time: 0.033333
1.049998 0.676470 1.096709 -79.712644 4.272128 87.229655 6.913543 -0.337641 19.146520 -4.704894 -20.288025 18.370415 -2.899649 4.327147 -21.911527 0.000000 -0.000000 0.000000 -2.648344 2.981783 -38.806512 0.072673 -14.915337 27.454837 5.858583 -6.815080 -4.196108 0.000000 -0.000000 0.000000 0.316155 -7.745174 18.894754 3.727135 -1.867792 7.409031 1.434353 -4.248220 2.686376 2.769899 1.889116 10.685187 2.770446 -5.768652 13.277214 -23.650546 -1.145043 2.957219 -64.592119 -16.178520 10.422410 14.974620 -37.474935 6.054000 -12.998913 -13.211403 2.405318 25.071662 -4.102448 4.438863 66.809114 -6.940594 2.366061 -19.724393 11.553534 -5.867165 15.517115 1.248547 0.474157 
1.010418 0.679397 1.109354 -80.653468 4.837038 88.310299 7.187791 -1.415794 18.767597 -4.878099 -18.149540 21.973115 -6.181748 3.234077 -11.601252 0.000000 -0.000000 0.000000 -2.226535 5.636635 -37.565764 0.380360 -15.797581 27.875813 4.523680 -7.648928 -4.341890 0.000000 -0.000000 0.000000 1.796932 -8.734218 18.260127 3.947373 -1.058858 8.369965 1.152567 -3.891207 1.367557 2.052752 1.628323 11.262474 2.437407 -4.679209 11.801116 -24.560681 -0.425675 3.124076 -64.620911 -13.954989 10.615993 15.936111 -36.532861 4.077448 -13.344645 -12.412879 2.619290 24.919261 -2.927538 5.292696 65.946648 -5.668647 3.177017 -19.573861 11.500441 -6.516525 15.119434 0.899697 0.269647 
0.970071 0.682958 1.122436 -81.085608 5.301948 89.202923 7.728825 -2.109487 16.727344 -4.940521 -14.957644 29.232576 -9.887525 2.060207 -0.114760 0.000000 -0.000000 0.000000 -0.837231 6.436849 -35.359327 0.245815 -16.534609 27.525603 2.087601 -6.691685 -5.828182 0.000000 -0.000000 0.000000 3.136926 -8.890927 17.508908 4.209707 -1.283939 9.129776 1.200900 -3.513295 -0.061824 1.189604 1.419078 12.156217 2.493257 -3.888921 10.259828 -24.606315 -0.837665 3.773697 -64.987612 -11.406904 10.009338 15.935823 -34.854416 3.819640 -16.254145 -11.106700 2.483800 24.439098 -1.566010 6.031166 64.999765 -5.046727 2.497277 -19.153615 13.395352 -5.791920 13.892670 1.488583 0.091227 
0.930956 0.687253 1.134147 -81.516907 5.195100 89.558964 7.866259 -1.283485 12.744856 -4.652712 -12.284312 39.838776 -13.964293 3.835601 10.627752 0.000000 -0.000000 0.000000 0.582278 5.777053 -32.383095 0.268252 -16.842825 27.237113 0.399980 -4.496906 -7.595472 0.000000 -0.000000 0.000000 3.592515 -7.797019 17.007949 4.576916 -1.764470 9.586601 1.285065 -3.341011 -0.719381 1.403400 1.520859 11.680269 2.881800 -4.505844 9.481551 -24.487952 -1.471355 3.690072 -64.884468 -9.086038 9.725250 14.934434 -33.412126 5.524202 -19.110451 -9.818175 3.219856 24.728025 -0.538508 5.380009 63.141982 -4.534697 1.688685 -18.421049 15.625611 -4.842396 13.651278 1.987615 -0.542710 
0.895262 0.692209 1.145690 -83.257450 4.759215 89.313094 7.135504 -1.897706 9.223236 -4.671636 -7.063986 48.595325 -10.913839 6.002148 4.940782 0.000000 -0.000000 0.000000 1.885426 6.205632 -28.804934 0.833032 -15.066041 26.083448 0.157568 -4.611212 -9.103075 0.000000 -0.000000 0.000000 3.398344 -5.984373 17.407147 4.605194 -1.375396 8.687776 1.177045 -3.158492 -0.582816 1.747785 1.078713 10.842133 2.060879 -4.295019 10.569946 -24.708686 -1.506966 3.934682 -63.954474 -7.814518 9.299955 13.442686 -32.165411 8.132185 -20.410430 -9.436929 4.895858 25.468135 0.466921 5.232313 61.277038 -2.189802 2.561399 -17.987610 15.972028 -4.783162 12.654029 2.527541 -1.225090 
